<svg xmlns="http://www.w3.org/2000/svg" width="39" height="27" viewBox="0 0 39 27">
  <g fill="#5B85E7" transform="translate(1)">
    <path stroke="#5B85E7" stroke-width=".7" d="M32.2,10 C32.1,8.5 31.3,7.2 29.9,6.1 L29.4,5.7 L29,6.2 C28.3,7.3 28,8.7 28.1,9.9 C28.2,10.7 28.5,11.6 29,12.2 C28.6,12.5 27.3,13.1 25.6,13.1 L0.4,13.1 C-0.1,15.8 0.7,26 12.4,26 C21.1,26 28.2,22.1 31.5,13.9 C32.6,13.9 35.4,14.1 36.8,11.4 C36.8,11.4 37.2,10.7 37.2,10.7 L36.7,10.3 C35.8,9.8 33.7,9.6 32.2,10 Z"/>
    <rect width="3.9" height="3.6" x="16.6"/>
    <rect width="3.9" height="3.6" x="16.6" y="4.3"/>
    <rect width="3.9" height="3.6" x="12" y="4.3"/>
    <rect width="3.9" height="3.6" x="7.4" y="4.3"/>
    <rect width="3.9" height="3.6" x="2.8" y="8.5"/>
    <rect width="3.9" height="3.6" x="7.4" y="8.5"/>
    <rect width="3.9" height="3.6" x="12" y="8.5"/>
    <rect width="3.9" height="3.6" x="16.6" y="8.5"/>
    <rect width="3.9" height="3.6" x="21.2" y="8.5"/>
  </g>
</svg>
