<svg xmlns="http://www.w3.org/2000/svg" width="21" height="21" viewBox="0 0 21 21">
  <path fill="#767676" d="M19.5,13.5 L17.5,13.5 L17.5,12.5 C17.5,10.8 16.2,9.5 14.5,9.5 L11.5,9.5 L11.5,7.5 L13.5,7.5 C14.1,7.5 14.5,7.1 14.5,6.5 L14.5,1.5 C14.5,0.9 14.1,0.5 13.5,0.5 L7.5,0.5 C6.9,0.5 6.5,0.9 6.5,1.5 L6.5,6.5 C6.5,7.1 6.9,7.5 7.5,7.5 L9.5,7.5 L9.5,9.5 L6.5,9.5 C4.8,9.5 3.5,10.8 3.5,12.5 L3.5,13.5 L1.5,13.5 C0.9,13.5 0.5,13.9 0.5,14.5 L0.5,19.5 C0.5,20.1 0.9,20.5 1.5,20.5 L7.5,20.5 C8.1,20.5 8.5,20.1 8.5,19.5 L8.5,14.5 C8.5,13.9 8.1,13.5 7.5,13.5 L5.5,13.5 L5.5,12.5 C5.5,11.9 5.9,11.5 6.5,11.5 L14.5,11.5 C15.1,11.5 15.5,11.9 15.5,12.5 L15.5,13.5 L13.5,13.5 C12.9,13.5 12.5,13.9 12.5,14.5 L12.5,19.5 C12.5,20.1 12.9,20.5 13.5,20.5 L19.5,20.5 C20.1,20.5 20.5,20.1 20.5,19.5 L20.5,14.5 C20.5,13.9 20.1,13.5 19.5,13.5 Z M8.5,5.5 L8.5,2.5 L12.5,2.5 L12.5,5.5 L8.5,5.5 Z M6.5,18.5 L2.5,18.5 L2.5,15.5 L6.5,15.5 L6.5,18.5 Z M18.5,18.5 L14.5,18.5 L14.5,15.5 L18.5,15.5 L18.5,18.5 Z"/>
</svg>
