<svg xmlns="http://www.w3.org/2000/svg" width="19" height="21" viewBox="0 0 19 21">
  <path fill="#fff" d="M18.7,6.9 L12.7,0.9 C12.3,0.5 11.7,0.5 11.3,0.9 L8,4.2 L6.7,2.9 C6.3,2.5 5.7,2.5 5.3,2.9 L0.3,7.9 C-0.1,8.3 -0.1,8.9 0.3,9.3 L6.3,15.3 L11.3,20.3 L12.7,18.9 L8.4,14.6 L10,13 L11.3,14.3 C11.5,14.5 11.8,14.6 12,14.6 C12.2,14.6 12.5,14.5 12.7,14.3 L18.7,8.3 C19.1,8 19.1,7.3 18.7,6.9 Z M2.4,8.6 L6,5 L10.6,9.6 L7,13.2 L2.4,8.6 Z M13,11.2 L13,9.6 C13,9.3 12.9,9.1 12.7,8.9 L9.4,5.6 L12,3.1 L16.6,7.7 L13,11.2 Z"/>
</svg>
