<svg xmlns="http://www.w3.org/2000/svg" width="17" height="24" viewBox="0 0 17 24">
  <path fill="#767676" d="M8.8,11 L15.8,11 C16.4,11 16.8,10.6 16.8,10 L16.8,4 C16.8,3.7 16.7,3.5 16.5,3.3 L13.5,0.3 C13.3,0.1 13,0 12.8,0 L8.8,0 C8.2,0 7.8,0.4 7.8,1 L7.8,4 L2.8,4 L2.8,0 L0.8,0 L0.8,18 C0.8,18.6 1.2,19 1.8,19 L7.8,19 L7.8,23 C7.8,23.6 8.2,24 8.8,24 L15.8,24 C16.4,24 16.8,23.6 16.8,23 L16.8,17 C16.8,16.7 16.7,16.5 16.5,16.3 L13.5,13.3 C13.3,13.1 13,13 12.8,13 L8.8,13 C8.2,13 7.8,13.4 7.8,14 L7.8,17 L2.8,17 L2.8,6 L7.8,6 L7.8,10 C7.8,10.6 8.2,11 8.8,11 Z M9.8,2 L12.4,2 L14.8,4.4 L14.8,9 L9.8,9 L9.8,2 Z M9.8,15 L12.4,15 L14.8,17.4 L14.8,22 L9.8,22 L9.8,15 Z"/>
</svg>
