<svg xmlns="http://www.w3.org/2000/svg" width="742" height="371" viewBox="0 0 742 371">
  <defs>
    <linearGradient id="pocok-logo-a" x1="50%" x2="50%" y1="0%" y2="100%">
      <stop offset="0%" stop-color="#4EC4D3"/>
      <stop offset="100%" stop-color="#6482C1"/>
    </linearGradient>
    <linearGradient id="pocok-logo-b" x1="50%" x2="50%" y1="0%" y2="100%">
      <stop offset="0%" stop-color="#4EC4D3"/>
      <stop offset="100%" stop-color="#6482C1"/>
    </linearGradient>
    <linearGradient id="pocok-logo-c" x1="50%" x2="50%" y1="0%" y2="100%">
      <stop offset="0%" stop-color="#4EC4D3"/>
      <stop offset="100%" stop-color="#6482C1"/>
    </linearGradient>
  </defs>
  <g fill="none">
    <path fill="url(#pocok-logo-a)" d="M291.8,70.4 C274.8,60.6 251.2,69.5 239.1,90.3 C227,111.1 213.5,153.6 230.6,163.5 C247.7,173.4 288.8,146.8 300.9,126 C313,105.2 308.8,80.3 291.8,70.4 Z M276.5,119.1 C272.7,125.7 259.7,134.1 254.3,131 C248.9,127.9 253.2,114.4 257,107.8 C260.8,101.2 268.3,98.4 273.7,101.5 C279.1,104.6 280.3,112.6 276.5,119.1 Z"/>
    <path fill="url(#pocok-logo-b)" d="M78.2,70.4 C61.2,80.2 57.1,105.1 69.1,126 C81.1,146.9 122.3,173.4 139.4,163.5 C156.5,153.6 142.9,111.2 130.9,90.3 C118.9,69.4 95.3,60.6 78.2,70.4 Z M111.1,128.4 C106.6,131 95.9,124 92.7,118.6 C89.5,113.2 90.6,106.6 95.1,104.1 C99.6,101.6 105.7,103.9 108.9,109.3 C112.1,114.7 115.6,125.9 111.1,128.4 Z"/>
    <path fill="url(#pocok-logo-b)" d="M260.4,147.3 C249.2,134.9 242.6,118.8 243.1,102.1 C243.3,94.9 244.4,87.8 246.2,80.9 C243.5,83.8 241.1,87 239.1,90.4 C233.5,100 229.5,114.2 220.5,120.1 C197.5,112 172.5,112 149.5,120.1 C140.4,114.2 136.4,100.1 130.9,90.4 C128.9,87 126.5,83.8 123.8,80.9 C125.6,87.8 126.7,94.9 126.9,102.1 C127.4,118.8 120.8,134.9 109.6,147.3 C88.1,171.2 78.1,203.3 78.1,226.9 C78.1,269.6 126,304.1 185,304.1 C244,304.1 291.9,269.5 291.9,226.9 C291.9,203.2 281.9,171.2 260.4,147.3 Z M110.1,259.7 C109.3,261.1 107.5,261.5 106.1,260.7 C90.9,251.4 92.7,235.4 95.7,228.2 C96.3,226.7 98.1,226 99.5,226.6 C101,227.2 101.7,229 101.1,230.5 C100.8,231.2 94.6,246.8 109.1,255.7 C110.5,256.5 110.9,258.3 110.1,259.7 Z M135.5,220.9 C130,220.9 125.6,213.8 125.6,205.1 C125.6,196.4 130,189.3 135.5,189.3 C141,189.3 145.4,196.4 145.4,205.1 C145.4,213.8 141,220.9 135.5,220.9 Z M185,272.9 C175.5,272.9 167.9,268.3 167.9,262.7 C167.9,257.1 175.6,252.5 185,252.5 C194.4,252.5 202.1,257.1 202.1,262.7 C202.1,268.3 194.5,272.8 185,272.8 L185,272.9 Z M234.5,220.9 C229,220.9 224.6,213.8 224.6,205.1 C224.6,196.4 229,189.3 234.5,189.3 C240,189.3 244.4,196.4 244.4,205.1 C244.4,213.8 240,220.9 234.5,220.9 Z M266.7,260.7 C265.3,261.6 263.5,261.1 262.7,259.7 C261.8,258.3 262.3,256.5 263.6,255.7 C278.2,246.8 271.9,231.2 271.6,230.5 C271,229 271.7,227.3 273.1,226.6 C274.6,226 276.3,226.7 277,228.2 C280.1,235.3 281.9,251.4 266.7,260.7 Z"/>
    <path fill="url(#pocok-logo-b)" d="M350,370.1 L20,370.1 C9,370.1 0.1,361.2 0.1,350.2 L0.1,20.2 C0.1,9.2 9,0.3 20,0.3 L350,0.3 C361,0.3 369.9,9.2 369.9,20.2 L369.9,350.3 C369.8,361.3 361,370.1 350,370.1 Z M20,9.3 C14,9.3 9.1,14.2 9.1,20.2 L9.1,350.3 C9.1,356.3 14,361.2 20,361.2 L350,361.2 C356,361.2 360.9,356.3 360.9,350.3 L360.9,20.2 C360.9,14.2 356,9.3 350,9.3 C350,9.3 20,9.3 20,9.3 Z"/>
    <path fill="url(#pocok-logo-c)" d="M324.3,341.3 L45.7,341.3 C36.4,341.3 28.9,333.8 28.9,324.5 L28.9,46 C28.9,36.7 36.4,29.2 45.7,29.2 L324.3,29.2 C333.6,29.2 341.1,36.7 341.1,46 L341.1,324.5 C341.1,333.8 333.6,341.3 324.3,341.3 Z M45.7,36.8 C40.6,36.8 36.5,40.9 36.5,46 L36.5,324.5 C36.5,329.6 40.6,333.7 45.7,333.7 L324.3,333.7 C329.4,333.7 333.5,329.6 333.5,324.5 L333.5,46 C333.5,40.9 329.4,36.8 324.3,36.8 L45.7,36.8 Z"/>
    <path fill="#4D7DBF" d="M424.5 203.7L424.5 224 403.4 224 403.4 161 430.4 161C433.6 161 436.7 161.4 439.9 162 442.9 162.6 445.7 163.9 448.2 165.5 450.7 167.1 452.7 169.3 454.1 171.9 457 178.3 457 185.7 454.1 192.1 452.7 194.8 450.7 197 448.3 198.8 445.8 200.6 443 201.8 440 202.6 436.8 203.4 433.7 203.7 430.4 203.7L424.5 203.7zM424.5 177.5L424.5 187.6 428.9 187.6C430.4 187.6 431.9 187.1 433.3 186.3 434.7 185.4 435.4 183.9 435.3 182.3 435.3 181.4 435.2 180.7 434.8 179.9 434.4 179.3 433.9 178.8 433.3 178.4 432.7 178 431.9 177.8 431.2 177.6L428.9 177.3 424.5 177.5zM461.5 192.1C461.4 187.4 462.4 182.8 464.2 178.5 465.8 174.6 468.4 171 471.5 168.1 474.8 165.2 478.6 162.9 482.6 161.5 491.6 158.5 501.4 158.5 510.4 161.5 514.4 162.9 518.2 165.2 521.5 168.1 524.7 171 527.2 174.5 529 178.5 530.8 182.8 531.8 187.5 531.7 192.1 531.7 196.8 530.8 201.4 529 205.9 527.2 209.9 524.7 213.5 521.5 216.5 518.3 219.5 514.6 221.8 510.4 223.3 501.4 226.5 491.6 226.5 482.6 223.3 478.4 221.8 474.6 219.5 471.5 216.5 468.3 213.5 465.8 209.9 464.2 205.9 462.4 201.5 461.5 196.8 461.5 192.1zM484 192.1C484 194 484.3 196 484.9 197.8 485.4 199.4 486.3 201 487.4 202.2 488.5 203.5 489.8 204.5 491.3 205.1 492.9 205.7 494.6 206.1 496.4 206.1 499.8 206.1 503.1 204.7 505.4 202.2 506.5 200.9 507.4 199.4 508.1 197.8 508.7 196 509 194 509 192.1 509 190.2 508.7 188.3 508.1 186.5 507.5 184.9 506.6 183.5 505.4 182.2 503 179.8 499.8 178.5 496.4 178.5 494.6 178.5 493 178.9 491.3 179.5 489.8 180.1 488.5 181.1 487.4 182.3 486.3 183.6 485.4 185 484.9 186.6 484.3 188.5 484 190.2 484 192.1zM537.7 192.5C537.6 187.8 538.6 183 540.4 178.7 542 174.8 544.6 171.1 547.7 168.2 550.9 165.3 554.5 163 558.6 161.5 562.9 159.9 567.4 159.1 572 159.1 576.7 159.1 581.3 159.9 585.8 161.5 589.8 162.9 593.5 165 596.7 167.8L583.8 183.6C582.7 182.1 581.1 180.8 579.4 180.1 577.5 179.2 575.5 178.8 573.5 178.8 571.7 178.8 570.1 179.1 568.4 179.7 566.9 180.3 565.5 181.2 564.4 182.5 563.1 183.8 562.3 185.2 561.6 186.8 561 188.6 560.6 190.6 560.6 192.5 560.6 194.4 560.9 196.3 561.6 198.1 562.2 199.7 563.2 201.1 564.4 202.4 565.5 203.7 566.9 204.5 568.4 205.2 569.9 205.8 571.7 206.1 573.3 206.1 575.4 206.2 577.7 205.6 579.6 204.6 581.2 203.7 582.6 202.6 583.8 201.1L596.8 216.6C593.8 219.5 590.2 221.9 586.3 223.4 577.5 226.7 567.6 226.8 558.8 223.5 554.8 222 551.1 219.7 547.9 216.7 544.7 213.8 542.3 210.1 540.6 206.2 538.6 201.8 537.7 197.2 537.7 192.5zM598.6 192.1C598.5 187.4 599.5 182.8 601.3 178.5 602.9 174.6 605.5 171 608.6 168.1 611.9 165.2 615.7 162.9 619.7 161.5 628.7 158.5 638.5 158.5 647.5 161.5 651.5 162.9 655.3 165.2 658.6 168.1 661.8 171 664.3 174.5 666.1 178.5 667.9 182.8 668.9 187.5 668.8 192.1 668.8 196.8 667.9 201.4 666.1 205.9 664.3 209.9 661.8 213.5 658.6 216.5 655.4 219.5 651.7 221.8 647.5 223.3 638.5 226.5 628.7 226.5 619.7 223.3 615.5 221.8 611.7 219.5 608.6 216.5 605.5 213.5 602.9 209.9 601.3 205.9 599.5 201.5 598.6 196.8 598.6 192.1zM621.1 192.1C621.1 194 621.4 196 622 197.8 622.5 199.4 623.4 201 624.5 202.2 625.6 203.4 626.9 204.5 628.4 205.1 630 205.9 631.7 206.1 633.5 206.1 636.9 206.1 640.2 204.7 642.5 202.2 643.6 200.9 644.5 199.4 645.2 197.8 645.8 196 646.1 194 646.1 192.1 646.1 190.2 645.8 188.3 645.2 186.5 644.6 184.9 643.7 183.5 642.5 182.2 640.1 179.8 636.9 178.5 633.5 178.5 631.7 178.5 630.1 178.9 628.4 179.5 626.9 180.1 625.6 181.1 624.5 182.3 623.4 183.6 622.5 185 622 186.6 621.5 188.4 621.2 190.1 621.2 192L621.1 192.1z"/>
    <polygon fill="#4D7DBF" points="698.4 198.9 698.4 198.9 698.3 224 677.7 224 677.7 161 698.2 161 698.2 184.2 698.3 184.2 715 161 740 161 716.3 190 741.3 224.1 715.3 224.1"/>
  </g>
</svg>
