<svg xmlns="http://www.w3.org/2000/svg" width="21" height="21" viewBox="0 0 21 21">
  <g fill="#fff">
    <rect width="6" height="2" x="7.5" y="4.5"/>
    <rect width="6" height="2" x="7.5" y="8.5"/>
    <path d="M17.5,0.5 L7.5,0.5 C5.8,0.5 4.5,1.8 4.5,3.5 L4.5,12.5 C2.3,12.5 0.5,14.3 0.5,16.5 C0.5,18.7 2.3,20.5 4.5,20.5 L12.5,20.5 C14.7,20.5 16.5,18.7 16.5,16.5 L16.5,6.5 L19.5,6.5 C20.1,6.5 20.5,6.1 20.5,5.5 L20.5,3.5 C20.5,1.8 19.2,0.5 17.5,0.5 Z M9,18.5 L4.5,18.5 C3.4,18.5 2.5,17.6 2.5,16.5 C2.5,15.4 3.4,14.5 4.5,14.5 L9,14.5 C8.7,15.1 8.5,15.8 8.5,16.5 C8.5,17.2 8.7,17.9 9,18.5 Z M14.5,16.5 C14.5,17.6 13.6,18.5 12.5,18.5 C11.4,18.5 10.5,17.6 10.5,16.5 C10.5,15.4 11.4,14.5 12.5,14.5 C13.1,14.5 13.5,14.1 13.5,13.5 C13.5,12.9 13.1,12.5 12.5,12.5 L6.5,12.5 L6.5,3.5 C6.5,2.9 6.9,2.5 7.5,2.5 L14.7,2.5 C14.6,2.8 14.5,3.1 14.5,3.5 L14.5,16.5 Z M18.5,4.5 L16.5,4.5 L16.5,3.5 C16.5,2.9 16.9,2.5 17.5,2.5 C18.1,2.5 18.5,2.9 18.5,3.5 L18.5,4.5 Z"/>
  </g>
</svg>
