<svg xmlns="http://www.w3.org/2000/svg" width="21" height="21" viewBox="0 0 21 21">
  <g fill="#767676">
    <polygon points="13.2 9.2 18.5 3.9 18.5 6.5 20.5 6.5 20.5 .5 14.5 .5 14.5 2.5 17.1 2.5 11.8 7.8"/>
    <polygon points="6.5 18.5 3.9 18.5 9.2 13.2 7.8 11.8 2.5 17.1 2.5 14.5 .5 14.5 .5 20.5 6.5 20.5"/>
    <polygon points="2.5 3.9 7.8 9.2 9.2 7.8 3.9 2.5 6.5 2.5 6.5 .5 .5 .5 .5 6.5 2.5 6.5"/>
    <polygon points="14.5 18.5 14.5 20.5 20.5 20.5 20.5 14.5 18.5 14.5 18.5 17.1 13.2 11.8 11.8 13.2 17.1 18.5"/>
  </g>
</svg>
