<svg xmlns="http://www.w3.org/2000/svg" width="23" height="24" viewBox="0 0 23 24">
  <g fill="#767676">
    <path d="M7.3 8.5L10.3 8.5 10.3 9.5 8.3 9.5 8.3 11.5 14.3 11.5 14.3 9.5 12.3 9.5 12.3 8.5 15.3 8.5C15.9 8.5 16.3 8.1 16.3 7.5L16.3 1.5C16.3.9 15.9.5 15.3.5L7.3.5C6.7.5 6.3.9 6.3 1.5L6.3 7.5C6.3 8.1 6.8 8.5 7.3 8.5zM8.3 2.5L14.3 2.5 14.3 5.5 8.3 5.5 8.3 2.5zM9.3 12.5L1.3 12.5C.7 12.5.3 12.9.3 13.5L.3 19.5C.3 20.1.7 20.5 1.3 20.5L4.3 20.5 4.3 21.5 2.3 21.5 2.3 23.5 8.3 23.5 8.3 21.5 6.3 21.5 6.3 20.5 9.3 20.5C9.9 20.5 10.3 20.1 10.3 19.5L10.3 13.5C10.3 12.9 9.9 12.5 9.3 12.5zM8.3 17.5L2.3 17.5 2.3 14.5 8.3 14.5 8.3 17.5zM21.3 12.5L13.3 12.5C12.7 12.5 12.3 12.9 12.3 13.5L12.3 19.5C12.3 20.1 12.7 20.5 13.3 20.5L16.3 20.5 16.3 21.5 14.3 21.5 14.3 23.5 20.3 23.5 20.3 21.5 18.3 21.5 18.3 20.5 21.3 20.5C21.9 20.5 22.3 20.1 22.3 19.5L22.3 13.5C22.3 12.9 21.9 12.5 21.3 12.5zM20.3 17.5L14.3 17.5 14.3 14.5 20.3 14.5 20.3 17.5z"/>
  </g>
</svg>
