<svg xmlns="http://www.w3.org/2000/svg" width="25" height="21" viewBox="0 0 25 21">
  <g fill="#767676">
    <rect width="8" height="2" x="8.3" y="15.4"/>
    <path d="M22.3,6.4 L13.3,6.4 L13.3,5.4 C13.3,4.8 13.7,4.4 14.3,4.4 L15.3,4.4 C17,4.4 18.3,3.1 18.3,1.4 L18.3,0.4 L16.3,0.4 L16.3,1.4 C16.3,2 15.9,2.4 15.3,2.4 L14.3,2.4 C12.6,2.4 11.3,3.7 11.3,5.4 L11.3,6.4 L2.3,6.4 C1.2,6.4 0.3,7.3 0.3,8.4 L0.3,18.4 C0.3,19.5 1.2,20.4 2.3,20.4 L22.3,20.4 C23.4,20.4 24.3,19.5 24.3,18.4 L24.3,8.4 C24.3,7.3 23.4,6.4 22.3,6.4 Z M2.3,18.4 L2.3,8.4 L22.3,8.4 L22.3,18.4 L2.3,18.4 Z"/>
    <circle cx="6.3" cy="10.4" r="1"/>
    <circle cx="9.3" cy="10.4" r="1"/>
    <circle cx="12.3" cy="10.4" r="1"/>
    <circle cx="15.3" cy="10.4" r="1"/>
    <circle cx="18.3" cy="10.4" r="1"/>
    <circle cx="6.3" cy="13.4" r="1"/>
    <circle cx="9.3" cy="13.4" r="1"/>
    <circle cx="12.3" cy="13.4" r="1"/>
    <circle cx="15.3" cy="13.4" r="1"/>
    <circle cx="18.3" cy="13.4" r="1"/>
  </g>
</svg>
