<svg xmlns="http://www.w3.org/2000/svg" width="23" height="22" viewBox="0 0 23 22">
  <g fill="#fff">
    <path d="M21.1.6C19.6-.3 17.5.5 16.4 2.4 15.3 4.3 14.1 8.1 15.6 9 17.1 9.9 20.8 7.5 21.9 5.6 23 3.7 22.6 1.5 21.1.6zM19.7 5C19.4 5.6 18.2 6.3 17.7 6.1 17.2 5.8 17.6 4.6 17.9 4 18.2 3.4 18.9 3.2 19.4 3.4 19.9 3.7 20 4.4 19.7 5zM1.9.6C.4 1.5 1.66533454e-16 3.7 1.1 5.6 2.2 7.5 5.9 9.8 7.4 9 8.9 8.1 7.7 4.3 6.6 2.4 5.6.5 3.5-.3 1.9.6zM4.9 5.8C4.5 6 3.5 5.4 3.2 4.9 3 4.4 3 3.8 3.4 3.6 3.8 3.4 4.4 3.6 4.6 4.1 4.8 4.6 5.3 5.6 4.9 5.8z"/>
    <path d="M18.3,7.5 C17.3,6.4 16.7,4.9 16.7,3.5 C16.7,2.9 16.8,2.3 17,1.6 C16.8,1.9 16.6,2.1 16.4,2.5 C15.9,3.4 15.5,4.6 14.7,5.2 C13.8,4.9 12.7,4.7 11.5,4.7 C10.3,4.7 9.3,4.9 8.3,5.2 C7.5,4.7 7.1,3.4 6.6,2.5 C6.4,2.2 6.2,1.9 6,1.6 C6.2,2.3 6.3,2.9 6.3,3.5 C6.3,5 5.7,6.4 4.7,7.5 C2.8,9.6 1.9,12.5 1.9,14.6 C1.9,18.4 6.2,21.5 11.5,21.5 C16.8,21.5 21.1,18.4 21.1,14.6 C21.1,12.5 20.2,9.6 18.3,7.5 Z M4.8,17.5 C4.8,17.6 4.7,17.6 4.6,17.6 C4.6,17.6 4.5,17.6 4.5,17.6 C3.1,16.8 3.3,15.3 3.6,14.7 C3.7,14.6 3.8,14.5 3.9,14.6 C4,14.6 4,14.8 4,14.9 C4,15 3.4,16.4 4.7,17.2 C4.8,17.3 4.9,17.4 4.8,17.5 Z M7.1,14.1 C6.6,14.1 6.2,13.5 6.2,12.7 C6.2,11.9 6.6,11.3 7.1,11.3 C7.6,11.3 8,11.9 8,12.7 C8,13.5 7.6,14.1 7.1,14.1 Z M11.5,18.7 C10.7,18.7 10,18.3 10,17.8 C10,17.3 10.7,16.9 11.5,16.9 C12.3,16.9 13,17.3 13,17.8 C13,18.3 12.3,18.7 11.5,18.7 Z M15.9,14.1 C15.4,14.1 15,13.5 15,12.7 C15,11.9 15.4,11.3 15.9,11.3 C16.4,11.3 16.8,11.9 16.8,12.7 C16.8,13.5 16.4,14.1 15.9,14.1 Z M18.8,17.6 C18.8,17.6 18.7,17.6 18.7,17.6 C18.6,17.6 18.5,17.6 18.5,17.5 C18.4,17.4 18.5,17.2 18.6,17.1 C19.9,16.3 19.3,14.9 19.3,14.8 C19.2,14.7 19.3,14.5 19.4,14.5 C19.5,14.4 19.7,14.5 19.7,14.6 C20,15.4 20.2,16.8 18.8,17.6 Z"/>
  </g>
</svg>
