<svg xmlns="http://www.w3.org/2000/svg" width="21" height="21" viewBox="0 0 21 21">
  <path fill="#767676" d="M18.8,12.5 C18.5,12.5 18.2,12.6 18,12.7 L16.4,11.5 C16.7,10.9 16.8,10.2 16.8,9.5 C16.8,8.5 16.5,7.5 16,6.7 L18.3,4.4 C18.5,4.4 18.6,4.5 18.8,4.5 C19.9,4.5 20.8,3.6 20.8,2.5 C20.8,1.4 19.9,0.5 18.8,0.5 C17.7,0.5 16.8,1.4 16.8,2.5 C16.8,2.7 16.8,2.8 16.9,3 L14.6,5.3 C13.8,4.8 12.9,4.5 11.8,4.5 C10.3,4.5 8.9,5.2 8,6.3 L4.8,4.5 C4.8,3.4 3.9,2.5 2.8,2.5 C1.7,2.5 0.8,3.4 0.8,4.5 C0.8,5.6 1.7,6.5 2.8,6.5 C3.2,6.5 3.5,6.4 3.8,6.2 L7,8 C6.9,8.5 6.7,9 6.7,9.5 C6.7,10.5 7,11.5 7.5,12.3 L3.2,16.6 C3,16.6 2.9,16.5 2.7,16.5 C1.6,16.5 0.7,17.4 0.7,18.5 C0.7,19.6 1.6,20.5 2.7,20.5 C3.8,20.5 4.7,19.6 4.7,18.5 C4.7,18.3 4.7,18.2 4.6,18 L8.9,13.7 C9.4,14 10,14.3 10.7,14.4 L10.7,16.8 C10.1,17.1 9.7,17.8 9.7,18.5 C9.7,19.6 10.6,20.5 11.7,20.5 C12.8,20.5 13.7,19.6 13.7,18.5 C13.7,17.8 13.3,17.1 12.7,16.8 L12.7,14.4 C13.6,14.2 14.4,13.8 15.1,13.2 L16.7,14.4 C16.7,14.5 16.7,14.5 16.7,14.6 C16.7,15.7 17.6,16.6 18.7,16.6 C19.8,16.6 20.7,15.7 20.7,14.6 C20.8,13.4 19.9,12.5 18.8,12.5 Z M11.8,12.5 C10.1,12.5 8.8,11.2 8.8,9.5 C8.8,7.8 10.1,6.5 11.8,6.5 C13.5,6.5 14.8,7.8 14.8,9.5 C14.8,11.2 13.4,12.5 11.8,12.5 Z"/>
</svg>
